<svg xmlns="http://www.w3.org/2000/svg" width="1200" height="675" viewBox="0 0 1200 675" role="img" aria-labelledby="title desc">
  <title id="title">Vibe Coding Webinar</title>
  <desc id="desc">Cambermast Events featured image for the Vibe Coding Webinar.</desc>
  <defs>
    <linearGradient id="bg" x1="0" y1="0" x2="1" y2="1">
      <stop offset="0" stop-color="#0b2a6f"/>
      <stop offset="0.55" stop-color="#1d4ed8"/>
      <stop offset="1" stop-color="#38bdf8"/>
    </linearGradient>
    <radialGradient id="glow" cx="30%" cy="25%" r="70%">
      <stop offset="0" stop-color="#ffffff" stop-opacity="0.22"/>
      <stop offset="0.45" stop-color="#ffffff" stop-opacity="0.08"/>
      <stop offset="1" stop-color="#ffffff" stop-opacity="0"/>
    </radialGradient>
    <filter id="softShadow" x="-20%" y="-20%" width="140%" height="140%">
      <feDropShadow dx="0" dy="18" stdDeviation="22" flood-color="#000000" flood-opacity="0.35"/>
    </filter>
  </defs>

  <rect width="1200" height="675" fill="url(#bg)"/>
  <rect width="1200" height="675" fill="url(#glow)"/>

  <g opacity="0.22" fill="none" stroke="#ffffff">
    <path d="M80 560 C 240 460, 410 520, 560 420 S 900 300, 1120 220" stroke-width="6"/>
    <path d="M60 610 C 240 520, 430 580, 600 470 S 900 360, 1160 280" stroke-width="3"/>
  </g>

  <g filter="url(#softShadow)">
    <rect x="88" y="86" width="1024" height="503" rx="34" fill="#0b1220" fill-opacity="0.28" stroke="#ffffff" stroke-opacity="0.22"/>
  </g>

  <g font-family="ui-sans-serif, system-ui, -apple-system, Segoe UI, Roboto, Helvetica, Arial, sans-serif" fill="#ffffff">
    <text x="140" y="190" font-size="18" font-weight="700" letter-spacing="3.4" opacity="0.9">CAMBERMAST EVENTS</text>
    <text x="140" y="290" font-size="72" font-weight="800">Vibe Coding</text>
    <text x="140" y="368" font-size="72" font-weight="800">Webinar</text>
    <text x="140" y="438" font-size="26" font-weight="600" opacity="0.9">Practical demos for modern vibe coding workflows</text>

    <g transform="translate(140 486)" opacity="0.95">
      <rect x="0" y="0" width="360" height="52" rx="26" fill="#ffffff" fill-opacity="0.12" stroke="#ffffff" stroke-opacity="0.22"/>
      <text x="26" y="34" font-size="18" font-weight="700">Live online • February 2026</text>
    </g>
  </g>
</svg>
