<svg id="Layer_1" data-name="Layer 1" xmlns="http://www.w3.org/2000/svg" viewBox="0 0 1366.49 188.97"><defs><style>.cls-1{fill:#001a55;}.cls-2{fill:#012072;}.cls-3{fill:#0037be;}.cls-4{fill:#0063f2;}</style></defs><title>cambermast-logo-full</title><path class="cls-1" d="M18.43,92.05l165,92.08q-53.75-92.08,0-184Z" transform="translate(0.49 0.14)"/><path class="cls-2" d="M-.49,47.76l134.65,130Q107,75.74,183.47.17Z" transform="translate(0.49 0.14)"/><path class="cls-3" d="M82,127.6l47.09,26.22Q116.15,66.7,183.47.17L35.53,82.72Z" transform="translate(0.49 0.14)"/><path class="cls-3" d="M193.64,59.65q0-17.43,8.09-31.14A57.27,57.27,0,0,1,224,7.34,66.09,66.09,0,0,1,255.5-.14a62.27,62.27,0,0,1,16.82,2.28A49.38,49.38,0,0,1,286,8.58a52.89,52.89,0,0,1,10.17,8.93,78,78,0,0,1,7.48,10.38L282.49,38.48a29.73,29.73,0,0,0-11.21-12,27.12,27.12,0,0,0-15.78-4.77c-10.59,0-19.31,3.53-26.16,10.8-6.85,7-10.38,16.19-10.38,27.19s3.53,20.14,10.38,27.41,15.57,10.79,26.16,10.79a27.12,27.12,0,0,0,15.78-4.77,31.15,31.15,0,0,0,11.21-12l21.18,10.17a69.46,69.46,0,0,1-7.48,10.59A60.65,60.65,0,0,1,286,110.72a41.82,41.82,0,0,1-13.7,6.44,54.94,54.94,0,0,1-16.82,2.49,68.45,68.45,0,0,1-24.5-4.57,58.26,58.26,0,0,1-19.51-12,52.11,52.11,0,0,1-13.08-19.1A62.63,62.63,0,0,1,193.64,59.65Z" transform="translate(0.49 0.14)"/><path id="_1" data-name="1" class="cls-3" d="M306.16,117.58,350.79,1.73h30.94l44.43,115.85h-28l-7.27-19.73H341.45l-7.26,19.73ZM348.1,76.26h36.12L366.16,26.43Z" transform="translate(0.49 0.14)"/><polygon id="_2" data-name="2" class="cls-3" points="437.45 117.71 437.45 1.87 471.91 1.87 499.94 74.32 527.96 1.87 562.63 1.87 562.63 117.71 537.93 117.71 537.93 34.26 505.33 117.71 494.54 117.71 461.94 34.26 461.94 117.71 437.45 117.71"/><path id="_3" data-name="3" class="cls-3" d="M585.18,117.58V1.73H646a40,40,0,0,1,14.33,2.49,27.26,27.26,0,0,1,10.59,6.64,31.58,31.58,0,0,1,6,9.35,28.27,28.27,0,0,1,2.28,11c0,7.06-1.87,12.87-5.81,17.65a23.5,23.5,0,0,1-14.12,8.92,24.52,24.52,0,0,1,15.78,9.55A29.41,29.41,0,0,1,681.31,86c0,9.13-2.91,16.81-8.72,22.63s-14.12,8.93-24.71,8.93Zm24.5-21.8h32c4.57,0,8.31-1.25,10.8-3.53,2.7-2.29,3.94-5.61,3.94-9.76a12.08,12.08,0,0,0-3.94-9.34c-2.49-2.49-6.23-3.74-10.8-3.74h-32Zm0-48h30.94a15.17,15.17,0,0,0,10-3.32,12,12,0,0,0,3.53-8.93,11.86,11.86,0,0,0-3.53-8.72c-2.49-2.28-5.81-3.32-10-3.32H609.68Z" transform="translate(0.49 0.14)"/><polygon id="_4" data-name="4" class="cls-3" points="700.49 117.71 700.49 1.87 782.49 1.87 782.49 23.67 725.19 23.67 725.19 47.96 781.04 47.96 781.04 69.55 725.19 69.55 725.19 95.92 782.49 95.92 782.49 117.71 700.49 117.71"/><path id="_5" data-name="5" class="cls-3" d="M801.1,117.58V1.73h54.18c11.84,0,21.18,3.53,28.24,10.59,7.06,6.85,10.79,15.78,10.79,26.78A41,41,0,0,1,892,52.59a28.71,28.71,0,0,1-6,10.18,36.24,36.24,0,0,1-8.1,6.85,35.14,35.14,0,0,1-9.13,3.73l26.16,44.23H866.49L843.86,76.47H825.8v41.11Zm24.7-62.91h26A18.19,18.19,0,0,0,864,50.52a14.79,14.79,0,0,0,5-11.63q0-7.16-5-11.21c-3.11-2.91-7.26-4.15-12.25-4.15h-26Z" transform="translate(0.49 0.14)"/><polygon id="_6" data-name="6" class="cls-3" points="913.08 117.71 913.08 1.87 947.54 1.87 975.57 74.32 1003.6 1.87 1038.27 1.87 1038.27 117.71 1013.56 117.71 1013.56 34.26 980.97 117.71 970.17 117.71 937.58 34.26 937.58 117.71 913.08 117.71"/><path id="_7" data-name="7" class="cls-3" d="M1048.77,117.58,1093.2,1.73h30.94l44.63,115.85h-28l-7.26-19.73h-49.62l-7.27,19.73Zm41.73-41.32h36.13l-18.06-49.83Z" transform="translate(0.49 0.14)"/><path id="_8" data-name="8" class="cls-3" d="M1171.47,101.17l13.5-19.1a51.48,51.48,0,0,0,16.19,11.42,48,48,0,0,0,20.55,4.36q9.66,0,15-3.73c3.32-2.5,5.19-5.61,5.19-9.14a8.09,8.09,0,0,0-2.91-6.23,19.08,19.08,0,0,0-7.68-3.94c-3.11-.83-6.64-1.87-10.59-2.91s-8.09-2.07-12.24-3.11a56.63,56.63,0,0,1-12.25-4.16,51.52,51.52,0,0,1-10.59-6,26.37,26.37,0,0,1-7.48-9.55,33.45,33.45,0,0,1-2.9-13.91c0-10,3.94-18.27,12-24.91C1195.14,3.39,1205.73.07,1219,.07c18.48,0,33.64,5.4,45,16l-13.49,18.27A46.9,46.9,0,0,0,1234.79,25a53.38,53.38,0,0,0-17.85-3.32c-5.19,0-9.14,1-12,3.11a9.64,9.64,0,0,0-4.36,8.31,7.49,7.49,0,0,0,2.9,5.6,20.75,20.75,0,0,0,7.48,3.53c3.32,1,6.85,1.87,10.79,2.91s8.1,1.87,12,2.91A65.3,65.3,0,0,1,1246,52.39a52.66,52.66,0,0,1,10.59,6.43,27.12,27.12,0,0,1,7.47,9.76,33.25,33.25,0,0,1,2.7,13.91q0,16.5-11.83,26.78c-7.89,6.85-19.31,10.38-34.26,10.38C1200.12,119.65,1183.72,113.42,1171.47,101.17Z" transform="translate(0.49 0.14)"/><polygon id="_9" data-name="9" class="cls-3" points="1274.52 23.67 1274.52 1.87 1366.49 1.87 1366.49 23.67 1332.86 23.67 1332.86 117.71 1308.36 117.71 1308.36 23.67 1274.52 23.67"/><path class="cls-4" d="M500.75,187.92l19.61-51.07H534l19.61,51.07H541.34l-3.2-8.66H516.26l-3.2,8.66Zm18.47-18.24h16l-8-21.88Z" transform="translate(0.49 0.14)"/><path id="_1-2" data-name="1" class="cls-4" d="M573.94,162.39a25.89,25.89,0,0,1,3.65-13.91,25.12,25.12,0,0,1,9.8-9.12,27.52,27.52,0,0,1,13.68-3.19,24.19,24.19,0,0,1,7.07.91,15.53,15.53,0,0,1,5.92,2.51,38.36,38.36,0,0,1,4.56,3.42c1.14,1.37,2.28,2.74,3.42,4.33l-8.89,5a13.31,13.31,0,0,0-5.24-4.79,11.85,11.85,0,0,0-6.84-1.82,15.47,15.47,0,0,0-11.63,4.78c-3,3-4.33,7.07-4.33,11.86a17.11,17.11,0,0,0,4.33,12.08,15.48,15.48,0,0,0,11.63,4.79,11.93,11.93,0,0,0,8.43-3,15.14,15.14,0,0,0,4.79-7.07h-16v-9.58h27.82c0,9.12-2.28,16.19-7.07,21.43-4.56,5-10.94,7.76-19.15,7.76a24.34,24.34,0,0,1-9.8-2.06,24.94,24.94,0,0,1-8.44-5.24,24.06,24.06,0,0,1-5.7-8.21A29.15,29.15,0,0,1,573.94,162.39Z" transform="translate(0.49 0.14)"/><polygon id="_2-2" data-name="2" class="cls-4" points="652.4 188.06 652.4 136.99 663.12 136.99 663.12 188.06 652.4 188.06"/><polygon id="_3-2" data-name="3" class="cls-4" points="693.44 188.06 693.44 136.99 704.39 136.99 704.39 178.49 725.82 178.49 725.82 188.06 693.44 188.06"/><polygon id="_4-2" data-name="4" class="cls-4" points="753.86 188.06 753.86 136.99 789.88 136.99 789.88 146.57 764.8 146.57 764.8 157.28 789.2 157.28 789.2 166.86 764.8 166.86 764.8 178.49 789.88 178.49 789.88 188.06 753.86 188.06"/><polygon id="_5-2" data-name="5" class="cls-4" points="838.67 188.06 838.67 136.99 849.39 136.99 849.39 188.06 838.67 188.06"/><polygon id="_6-2" data-name="6" class="cls-4" points="880.17 188.06 880.17 136.99 891.34 136.99 914.82 169.14 914.82 136.99 925.76 136.99 925.76 188.06 915.28 188.06 891.11 154.78 891.11 188.06 880.17 188.06"/><path id="_7-2" data-name="7" class="cls-4" d="M970.18,187.92l19.61-51.07h13.68l19.61,51.07h-12.31l-3.2-8.66H985.69l-3.19,8.66Zm18.47-18.24h16l-8-21.88Z" transform="translate(0.49 0.14)"/><path id="_8-2" data-name="8" class="cls-4" d="M1043.37,162.39a27.67,27.67,0,0,1,3.42-13.68,25.78,25.78,0,0,1,9.8-9.35,31.23,31.23,0,0,1,13.91-3.19,26.33,26.33,0,0,1,7.52.91,18.16,18.16,0,0,1,5.93,3,17.63,17.63,0,0,1,4.33,3.87,17.09,17.09,0,0,1,3.42,4.56l-9.35,4.56a15,15,0,0,0-4.78-5.24,13.35,13.35,0,0,0-7.07-2.05,16.54,16.54,0,0,0-11.63,4.56,19,19,0,0,0,0,24.16,15.84,15.84,0,0,0,11.63,4.79,13.35,13.35,0,0,0,7.07-2,15.74,15.74,0,0,0,4.78-5.47l9.35,4.56a17.09,17.09,0,0,1-3.42,4.56A19,19,0,0,1,1084,185a20.59,20.59,0,0,1-5.93,2.74,26.18,26.18,0,0,1-7.52,1.14,28,28,0,0,1-10.72-2.06,23.88,23.88,0,0,1-8.66-5.24,22.13,22.13,0,0,1-5.7-8.44A27.16,27.16,0,0,1,1043.37,162.39Z" transform="translate(0.49 0.14)"/><polygon id="_9-2" data-name="9" class="cls-4" points="1116.13 146.57 1116.13 136.99 1156.72 136.99 1156.72 146.57 1141.9 146.57 1141.9 188.06 1130.95 188.06 1130.95 146.57 1116.13 146.57"/><polygon id="_10" data-name="10" class="cls-4" points="1184.3 188.06 1184.3 136.99 1195.25 136.99 1195.25 188.06 1184.3 188.06"/><path id="_11" data-name="11" class="cls-4" d="M1225.08,173.1a28,28,0,0,1-2.06-10.71,26,26,0,0,1,2.06-10.49,19.35,19.35,0,0,1,5.47-8.43A24.58,24.58,0,0,1,1239,138a32,32,0,0,1,10.72-1.82,28.63,28.63,0,0,1,13.45,3.19,25.17,25.17,0,0,1,9.58,9.35,29.07,29.07,0,0,1,0,27.36,23.69,23.69,0,0,1-9.58,9.35,26.25,26.25,0,0,1-13.45,3.42,27.21,27.21,0,0,1-10.72-2.06,24.41,24.41,0,0,1-8.43-5.47A20,20,0,0,1,1225.08,173.1Zm9.12-10.71a18,18,0,0,0,4.1,12.08,14.64,14.64,0,0,0,11.4,4.79,14.49,14.49,0,0,0,11.17-4.79,19.85,19.85,0,0,0,0-24.16,15.09,15.09,0,0,0-11.17-4.56,15.25,15.25,0,0,0-11.4,4.56A18,18,0,0,0,1234.2,162.39Z" transform="translate(0.49 0.14)"/><polygon id="_12" data-name="12" class="cls-4" points="1304.91 188.06 1304.91 136.99 1316.08 136.99 1339.57 169.14 1339.57 136.99 1350.51 136.99 1350.51 188.06 1340.02 188.06 1315.85 154.78 1315.85 188.06 1304.91 188.06"/></svg>